<?xml version="1.0" encoding="UTF-8" standalone="no"?>
<!-- Created with Inkscape (http://www.inkscape.org/) -->

<svg
   xmlns:dc="http://purl.org/dc/elements/1.1/"
   xmlns:cc="http://creativecommons.org/ns#"
   xmlns:rdf="http://www.w3.org/1999/02/22-rdf-syntax-ns#"
   xmlns:svg="http://www.w3.org/2000/svg"
   xmlns="http://www.w3.org/2000/svg"
   xmlns:sodipodi="http://sodipodi.sourceforge.net/DTD/sodipodi-0.dtd"
   xmlns:inkscape="http://www.inkscape.org/namespaces/inkscape"
   width="210mm"
   height="297mm"
   viewBox="0 0 744.09448819 1052.3622047"
   id="svg2"
   version="1.1"
   inkscape:version="0.91 r13725"
   inkscape:export-filename="/Users/Andres/Desarrollo/OLL Finder/OLL Finder/oll57.png"
   inkscape:export-xdpi="71"
   inkscape:export-ydpi="71"
   sodipodi:docname="cubeDrawing.svg">
  <sodipodi:namedview
     id="base"
     pagecolor="#ffffff"
     bordercolor="#666666"
     borderopacity="1.0"
     inkscape:pageopacity="0.0"
     inkscape:pageshadow="2"
     inkscape:zoom="1.776"
     inkscape:cx="276.53763"
     inkscape:cy="399.75144"
     inkscape:document-units="px"
     inkscape:current-layer="layer1"
     showgrid="false"
     inkscape:window-width="1118"
     inkscape:window-height="852"
     inkscape:window-x="0"
     inkscape:window-y="1"
     inkscape:window-maximized="0"
     showguides="true"
     inkscape:guide-bbox="true">
    <sodipodi:guide
       id="guide4295"
       orientation="0,1"
       position="490.99881,427.67966" />
    <sodipodi:guide
       id="guide4299"
       orientation="0,1"
       position="464.75188,339.45827" />
    <sodipodi:guide
       id="guide4301"
       orientation="1,0"
       position="413.27466,499.71754" />
  </sodipodi:namedview>
  <defs
     id="defs4" />
  <metadata
     id="metadata7">
    <rdf:RDF>
      <cc:Work
         rdf:about="">
        <dc:format>image/svg+xml</dc:format>
        <dc:type
           rdf:resource="http://purl.org/dc/dcmitype/StillImage" />
        <dc:title></dc:title>
      </cc:Work>
    </rdf:RDF>
  </metadata>
  <g
     id="layer1"
     inkscape:groupmode="layer"
     inkscape:label="Capa 1">
    <path
       style="fill:#2f2e2e;fill-opacity:1;stroke:#373636;stroke-width:1px;stroke-linecap:butt;stroke-linejoin:miter;stroke-opacity:1"
       d="m 261.91084,642.64573 c -0.27727,-1.37538 -2.7425,-2.56993 -4.48672,-3.1026 -4.41466,-1.3482 -1.5499,-2.37725 -0.46714,-2.72091 1.56596,-0.49701 3.1757,-2.47348 4.24328,-4.14718 l 2.14175,-3.35774 1.61433,3.30696 c 0.99552,2.03932 2.0452,2.87423 3.7371,3.58223 l 3.81854,1.59793 -4.45209,1.15266 c -1.42089,0.36787 -3.10506,2.29729 -3.62728,3.79759 -1.56864,4.50659 -1.59646,4.48109 -2.52177,-0.10894 z"
       id="path4441"
       inkscape:connector-curvature="0"
       sodipodi:nodetypes="sssscsscsss"
       inkscape:export-xdpi="71"
       inkscape:export-ydpi="71" />
    <path
       sodipodi:nodetypes="sssscsscsss"
       inkscape:connector-curvature="0"
       id="path4445"
       d="m 335.39057,642.85688 c -0.27727,-1.37538 -2.7425,-2.56993 -4.48672,-3.1026 -4.41466,-1.3482 -1.5499,-2.37725 -0.46714,-2.72091 1.56596,-0.49701 3.1757,-2.47348 4.24328,-4.14718 l 2.14175,-3.35774 1.61433,3.30696 c 0.99552,2.03932 2.0452,2.87423 3.7371,3.58223 l 3.81854,1.59793 -4.45209,1.15266 c -1.42089,0.36787 -3.10506,2.29729 -3.62728,3.79759 -1.56864,4.50659 -1.59646,4.48109 -2.52177,-0.10894 z"
       style="fill:#2f2e2e;fill-opacity:1;stroke:#373636;stroke-width:1px;stroke-linecap:butt;stroke-linejoin:miter;stroke-opacity:1"
       inkscape:export-xdpi="71"
       inkscape:export-ydpi="71" />
    <path
       sodipodi:nodetypes="sssscsscsss"
       inkscape:connector-curvature="0"
       id="path4449"
       d="m 262.19237,716.40699 c -0.27727,-1.37538 -2.7425,-2.56993 -4.48672,-3.1026 -4.41466,-1.3482 -1.5499,-2.37725 -0.46714,-2.72091 1.56596,-0.49701 3.1757,-2.47348 4.24328,-4.14718 l 2.14175,-3.35774 1.61433,3.30696 c 0.99552,2.03932 2.0452,2.87423 3.7371,3.58223 l 3.81854,1.59793 -4.45209,1.15266 c -1.42089,0.36787 -3.10506,2.29729 -3.62728,3.79759 -1.56864,4.50659 -1.59646,4.48109 -2.52177,-0.10894 z"
       style="fill:#2f2e2e;fill-opacity:1;stroke:#373636;stroke-width:1px;stroke-linecap:butt;stroke-linejoin:miter;stroke-opacity:1"
       inkscape:export-xdpi="71"
       inkscape:export-ydpi="71" />
    <path
       style="fill:#2f2e2e;fill-opacity:1;stroke:#373636;stroke-width:1px;stroke-linecap:butt;stroke-linejoin:miter;stroke-opacity:1"
       d="m 335.6721,716.61814 c -0.27727,-1.37538 -2.7425,-2.56993 -4.48672,-3.1026 -4.41466,-1.3482 -1.5499,-2.37725 -0.46714,-2.72091 1.56596,-0.49701 3.1757,-2.47348 4.24328,-4.14718 l 2.14175,-3.35774 1.61433,3.30696 c 0.99552,2.03932 2.0452,2.87423 3.7371,3.58223 l 3.81854,1.59793 -4.45209,1.15266 c -1.42089,0.36787 -3.10506,2.29729 -3.62728,3.79759 -1.56864,4.50659 -1.59646,4.48109 -2.52177,-0.10894 z"
       id="path4451"
       inkscape:connector-curvature="0"
       sodipodi:nodetypes="sssscsscsss"
       inkscape:export-xdpi="71"
       inkscape:export-ydpi="71" />
    <rect
       ry="9"
       y="565.65509"
       x="191"
       height="71"
       width="71"
       id="rect3336"
       style="fill:#cccde4;fill-opacity:1;fill-rule:evenodd;stroke:#000000;stroke-width:3;stroke-linecap:butt;stroke-linejoin:miter;stroke-miterlimit:4;stroke-dasharray:none;stroke-opacity:1"
       inkscape:export-xdpi="71.826126"
       inkscape:export-ydpi="71.826126" />
    <rect
       ry="9"
       y="565.65509"
       x="264.42621"
       height="71"
       width="71"
       id="rect3336-8"
       style="fill:#cccde4;fill-opacity:1;fill-rule:evenodd;stroke:#000000;stroke-width:3;stroke-linecap:butt;stroke-linejoin:miter;stroke-miterlimit:4;stroke-dasharray:none;stroke-opacity:1"
       inkscape:export-xdpi="71.826126"
       inkscape:export-ydpi="71.826126" />
    <rect
       transform="scale(1,-1)"
       ry="9"
       y="-636.65509"
       x="337.85239"
       height="71"
       width="71"
       id="rect3336-85"
       style="fill:#cccde4;fill-opacity:1;fill-rule:evenodd;stroke:#000000;stroke-width:3;stroke-linecap:butt;stroke-linejoin:miter;stroke-miterlimit:4;stroke-dasharray:none;stroke-opacity:1"
       inkscape:export-xdpi="71.826126"
       inkscape:export-ydpi="71.826126" />
    <rect
       ry="9"
       y="639.26715"
       x="190.88708"
       height="71"
       width="71"
       id="rect3336-6"
       style="fill:#cccde4;fill-opacity:1;fill-rule:evenodd;stroke:#000000;stroke-width:3;stroke-linecap:butt;stroke-linejoin:miter;stroke-miterlimit:4;stroke-dasharray:none;stroke-opacity:1"
       inkscape:export-xdpi="71.826126"
       inkscape:export-ydpi="71.826126" />
    <rect
       ry="9"
       y="639.26715"
       x="264.31329"
       height="71"
       width="71"
       id="rect3336-8-6"
       style="fill:#ffff00;fill-opacity:1;fill-rule:evenodd;stroke:#000000;stroke-width:3;stroke-linecap:butt;stroke-linejoin:miter;stroke-miterlimit:4;stroke-dasharray:none;stroke-opacity:1"
       inkscape:export-xdpi="71.826126"
       inkscape:export-ydpi="71.826126" />
    <rect
       ry="9"
       y="639.26715"
       x="337.73947"
       height="71"
       width="71"
       id="rect3336-85-5"
       style="fill:#cccde4;fill-opacity:1;fill-rule:evenodd;stroke:#000000;stroke-width:3;stroke-linecap:butt;stroke-linejoin:miter;stroke-miterlimit:4;stroke-dasharray:none;stroke-opacity:1"
       inkscape:export-xdpi="71.826126"
       inkscape:export-ydpi="71.826126" />
    <rect
       ry="9"
       y="712.80627"
       x="190.88707"
       height="71"
       width="71"
       id="rect3336-68"
       style="fill:#cccde4;fill-opacity:1;fill-rule:evenodd;stroke:#000000;stroke-width:3;stroke-linecap:butt;stroke-linejoin:miter;stroke-miterlimit:4;stroke-dasharray:none;stroke-opacity:1"
       inkscape:export-xdpi="71.826126"
       inkscape:export-ydpi="71.826126" />
    <rect
       ry="9"
       y="712.80627"
       x="264.31329"
       height="71"
       width="71"
       id="rect3336-8-1"
       style="fill:#cccde4;fill-opacity:1;fill-rule:evenodd;stroke:#000000;stroke-width:3;stroke-linecap:butt;stroke-linejoin:miter;stroke-miterlimit:4;stroke-dasharray:none;stroke-opacity:1"
       inkscape:export-xdpi="71.826126"
       inkscape:export-ydpi="71.826126" />
    <path
       id="rect3336-85-3"
       d="m 346.73947,712.80627 53,0 c 4.986,0 9,4.014 9,9 l 0,53 c 0,4.986 -4.014,9 -9,9 l -53,0 c -4.986,0 -9,-4.014 -9,-9 l 0,-53 c 0,-4.986 4.014,-9 9,-9 z"
       style="fill:#cccde4;fill-opacity:1;fill-rule:evenodd;stroke:#000000;stroke-width:3;stroke-linecap:butt;stroke-linejoin:miter;stroke-miterlimit:4;stroke-dasharray:none;stroke-opacity:1"
       inkscape:export-xdpi="71.826126"
       inkscape:export-ydpi="71.826126" />
    <a
       id="a4221"
       inkscape:export-xdpi="71"
       inkscape:export-ydpi="71">
      <path
         inkscape:connector-curvature="0"
         id="rect3336-85-6"
         d="m 416.45642,-634.74276 c 0,0 10.28711,9.67804 10.28711,9.67804 0.65113,0.61258 1.15086,3.56437 1.1528,6.65067 0,0 0.0207,32.93653 0.0207,32.93653 0.002,3.11079 -0.49647,6.14997 -1.15017,6.84717 0,0 -10.3527,11.04157 -10.3527,11.04157 -1.47202,1.56997 -2.75075,-1.20093 -2.74597,-6.33676 0,0 0.0504,-54.23845 0.0504,-54.23845 0.005,-5.06942 1.27889,-7.9513 2.73779,-6.57877 0,0 0,0 0,0"
         style="fill:#ffff00;fill-opacity:1;fill-rule:evenodd;stroke:#000000;stroke-width:3;stroke-linecap:butt;stroke-linejoin:miter;stroke-miterlimit:4;stroke-dasharray:none;stroke-opacity:1"
         transform="scale(1,-1)" />
    </a>
    <a
       id="a4381"
       transform="translate(0,147.14715)"
       inkscape:export-xdpi="71"
       inkscape:export-ydpi="71">
      <path
         transform="scale(1,-1)"
         style="fill:#ffff00;fill-opacity:1;fill-rule:evenodd;stroke:#000000;stroke-width:3;stroke-linecap:butt;stroke-linejoin:miter;stroke-miterlimit:4;stroke-dasharray:none;stroke-opacity:1"
         d="m 416.45642,-634.74276 c 0,0 10.28711,9.67804 10.28711,9.67804 0.65113,0.61258 1.15086,3.56437 1.1528,6.65067 0,0 0.0207,32.93653 0.0207,32.93653 0.002,3.11079 -0.49647,6.14997 -1.15017,6.84717 0,0 -10.3527,11.04157 -10.3527,11.04157 -1.47202,1.56997 -2.75075,-1.20093 -2.74597,-6.33676 0,0 0.0504,-54.23845 0.0504,-54.23845 0.005,-5.06942 1.27889,-7.9513 2.73779,-6.57877 0,0 0,0 0,0"
         id="path4383"
         inkscape:connector-curvature="0" />
    </a>
    <a
       id="a4385"
       transform="translate(0,73.330756)"
       inkscape:export-xdpi="71"
       inkscape:export-ydpi="71">
      <path
         id="path4387"
         d="m 416.45642,-634.74276 c 0,0 10.28711,9.67804 10.28711,9.67804 0.65113,0.61258 1.15086,3.56437 1.1528,6.65067 0,0 0.0207,32.93653 0.0207,32.93653 0.002,3.11079 -0.49647,6.14997 -1.15017,6.84717 0,0 -10.3527,11.04157 -10.3527,11.04157 -1.47202,1.56997 -2.75075,-1.20093 -2.74597,-6.33676 0,0 0.0504,-54.23845 0.0504,-54.23845 0.005,-5.06942 1.27889,-7.9513 2.73779,-6.57877 0,0 0,0 0,0"
         style="fill:#ffff00;fill-opacity:1;fill-rule:evenodd;stroke:#000000;stroke-width:3;stroke-linecap:butt;stroke-linejoin:miter;stroke-miterlimit:4;stroke-dasharray:none;stroke-opacity:1"
         transform="scale(1,-1)"
         inkscape:connector-curvature="0" />
    </a>
    <a
       id="a4399"
       transform="matrix(-1,0,0,-1,599.73946,1349.3817)"
       inkscape:export-xdpi="71"
       inkscape:export-ydpi="71">
      <path
         inkscape:connector-curvature="0"
         transform="scale(1,-1)"
         style="fill:#ffff00;fill-opacity:1;fill-rule:evenodd;stroke:#000000;stroke-width:3;stroke-linecap:butt;stroke-linejoin:miter;stroke-miterlimit:4;stroke-dasharray:none;stroke-opacity:1"
         d="m 416.45642,-634.74276 c 0,0 10.28711,9.67804 10.28711,9.67804 0.65113,0.61258 1.15086,3.56437 1.1528,6.65067 0,0 0.0207,32.93653 0.0207,32.93653 0.002,3.11079 -0.49647,6.14997 -1.15017,6.84717 0,0 -10.3527,11.04157 -10.3527,11.04157 -1.47202,1.56997 -2.75075,-1.20093 -2.74597,-6.33676 0,0 0.0504,-54.23845 0.0504,-54.23845 0.005,-5.06942 1.27889,-7.9513 2.73779,-6.57877 0,0 0,0 0,0"
         id="path4401" />
    </a>
    <a
       transform="matrix(-1,0,0,-1,599.73946,1202.2346)"
       id="a4403"
       inkscape:export-xdpi="71"
       inkscape:export-ydpi="71">
      <path
         inkscape:connector-curvature="0"
         id="path4405"
         d="m 416.45642,-634.74276 c 0,0 10.28711,9.67804 10.28711,9.67804 0.65113,0.61258 1.15086,3.56437 1.1528,6.65067 0,0 0.0207,32.93653 0.0207,32.93653 0.002,3.11079 -0.49647,6.14997 -1.15017,6.84717 0,0 -10.3527,11.04157 -10.3527,11.04157 -1.47202,1.56997 -2.75075,-1.20093 -2.74597,-6.33676 0,0 0.0504,-54.23845 0.0504,-54.23845 0.005,-5.06942 1.27889,-7.9513 2.73779,-6.57877 0,0 0,0 0,0"
         style="fill:#ffff00;fill-opacity:1;fill-rule:evenodd;stroke:#000000;stroke-width:3;stroke-linecap:butt;stroke-linejoin:miter;stroke-miterlimit:4;stroke-dasharray:none;stroke-opacity:1"
         transform="scale(1,-1)" />
    </a>
    <a
       transform="matrix(-1,0,0,-1,599.73946,1276.0509)"
       id="a4407"
       inkscape:export-xdpi="71"
       inkscape:export-ydpi="71">
      <path
         inkscape:connector-curvature="0"
         transform="scale(1,-1)"
         style="fill:#ffff00;fill-opacity:1;fill-rule:evenodd;stroke:#000000;stroke-width:3;stroke-linecap:butt;stroke-linejoin:miter;stroke-miterlimit:4;stroke-dasharray:none;stroke-opacity:1"
         d="m 416.45642,-634.74276 c 0,0 10.28711,9.67804 10.28711,9.67804 0.65113,0.61258 1.15086,3.56437 1.1528,6.65067 0,0 0.0207,32.93653 0.0207,32.93653 0.002,3.11079 -0.49647,6.14997 -1.15017,6.84717 0,0 -10.3527,11.04157 -10.3527,11.04157 -1.47202,1.56997 -2.75075,-1.20093 -2.74597,-6.33676 0,0 0.0504,-54.23845 0.0504,-54.23845 0.005,-5.06942 1.27889,-7.9513 2.73779,-6.57877 0,0 0,0 0,0"
         id="path4409" />
    </a>
    <a
       id="a4413"
       transform="matrix(0,-1,1,0,-373.84986,975.04623)">
      <path
         inkscape:connector-curvature="0"
         transform="scale(1,-1)"
         style="fill:#ffff00;fill-opacity:1;fill-rule:evenodd;stroke:#000000;stroke-width:3;stroke-linecap:butt;stroke-linejoin:miter;stroke-miterlimit:4;stroke-dasharray:none;stroke-opacity:1"
         d="m 416.45642,-634.74276 c 0,0 10.28711,9.67804 10.28711,9.67804 0.65113,0.61258 1.15086,3.56437 1.1528,6.65067 0,0 0.0207,32.93653 0.0207,32.93653 0.002,3.11079 -0.49647,6.14997 -1.15017,6.84717 0,0 -10.3527,11.04157 -10.3527,11.04157 -1.47202,1.56997 -2.75075,-1.20093 -2.74597,-6.33676 0,0 0.0504,-54.23845 0.0504,-54.23845 0.005,-5.06942 1.27889,-7.9513 2.73779,-6.57877 0,0 0,0 0,0"
         id="path4415" />
    </a>
    <a
       transform="matrix(0,-1,1,0,-226.70271,975.04623)"
       id="a4417">
      <path
         inkscape:connector-curvature="0"
         id="path4419"
         d="m 416.45642,-634.74276 c 0,0 10.28711,9.67804 10.28711,9.67804 0.65113,0.61258 1.15086,3.56437 1.1528,6.65067 0,0 0.0207,32.93653 0.0207,32.93653 0.002,3.11079 -0.49647,6.14997 -1.15017,6.84717 0,0 -10.3527,11.04157 -10.3527,11.04157 -1.47202,1.56997 -2.75075,-1.20093 -2.74597,-6.33676 0,0 0.0504,-54.23845 0.0504,-54.23845 0.005,-5.06942 1.27889,-7.9513 2.73779,-6.57877 0,0 0,0 0,0"
         style="fill:#ffff00;fill-opacity:1;fill-rule:evenodd;stroke:#000000;stroke-width:3;stroke-linecap:butt;stroke-linejoin:miter;stroke-miterlimit:4;stroke-dasharray:none;stroke-opacity:1"
         transform="scale(1,-1)" />
    </a>
    <a
       transform="matrix(0,-1,1,0,-300.5191,975.04623)"
       id="a4421"
       inkscape:export-xdpi="71"
       inkscape:export-ydpi="71">
      <path
         inkscape:connector-curvature="0"
         transform="scale(1,-1)"
         style="fill:#ffff00;fill-opacity:1;fill-rule:evenodd;stroke:#000000;stroke-width:3;stroke-linecap:butt;stroke-linejoin:miter;stroke-miterlimit:4;stroke-dasharray:none;stroke-opacity:1"
         d="m 416.45642,-634.74276 c 0,0 10.28711,9.67804 10.28711,9.67804 0.65113,0.61258 1.15086,3.56437 1.1528,6.65067 0,0 0.0207,32.93653 0.0207,32.93653 0.002,3.11079 -0.49647,6.14997 -1.15017,6.84717 0,0 -10.3527,11.04157 -10.3527,11.04157 -1.47202,1.56997 -2.75075,-1.20093 -2.74597,-6.33676 0,0 0.0504,-54.23845 0.0504,-54.23845 0.005,-5.06942 1.27889,-7.9513 2.73779,-6.57877 0,0 0,0 0,0"
         id="path4423" />
    </a>
    <a
       id="a4427"
       transform="matrix(0,1,-1,0,974.5606,374.8355)">
      <path
         inkscape:connector-curvature="0"
         id="path4429"
         d="m 416.45642,-634.74276 c 0,0 10.28711,9.67804 10.28711,9.67804 0.65113,0.61258 1.15086,3.56437 1.1528,6.65067 0,0 0.0207,32.93653 0.0207,32.93653 0.002,3.11079 -0.49647,6.14997 -1.15017,6.84717 0,0 -10.3527,11.04157 -10.3527,11.04157 -1.47202,1.56997 -2.75075,-1.20093 -2.74597,-6.33676 0,0 0.0504,-54.23845 0.0504,-54.23845 0.005,-5.06942 1.27889,-7.9513 2.73779,-6.57877 0,0 0,0 0,0"
         style="fill:#ffff00;fill-opacity:1;fill-rule:evenodd;stroke:#000000;stroke-width:3;stroke-linecap:butt;stroke-linejoin:miter;stroke-miterlimit:4;stroke-dasharray:none;stroke-opacity:1"
         transform="scale(1,-1)" />
    </a>
    <a
       id="a4431"
       transform="matrix(0,1,-1,0,827.41345,374.8355)"
       inkscape:export-xdpi="71"
       inkscape:export-ydpi="71">
      <path
         transform="scale(1,-1)"
         style="fill:#ffff00;fill-opacity:1;fill-rule:evenodd;stroke:#000000;stroke-width:3;stroke-linecap:butt;stroke-linejoin:miter;stroke-miterlimit:4;stroke-dasharray:none;stroke-opacity:1"
         d="m 416.45642,-634.74276 c 0,0 10.28711,9.67804 10.28711,9.67804 0.65113,0.61258 1.15086,3.56437 1.1528,6.65067 0,0 0.0207,32.93653 0.0207,32.93653 0.002,3.11079 -0.49647,6.14997 -1.15017,6.84717 0,0 -10.3527,11.04157 -10.3527,11.04157 -1.47202,1.56997 -2.75075,-1.20093 -2.74597,-6.33676 0,0 0.0504,-54.23845 0.0504,-54.23845 0.005,-5.06942 1.27889,-7.9513 2.73779,-6.57877 0,0 0,0 0,0"
         id="path4433"
         inkscape:connector-curvature="0" />
    </a>
    <a
       id="a4435"
       transform="matrix(0,1,-1,0,901.22984,374.8355)"
       inkscape:export-xdpi="71"
       inkscape:export-ydpi="71">
      <path
         id="path4437"
         d="m 416.45642,-634.74276 c 0,0 10.28711,9.67804 10.28711,9.67804 0.65113,0.61258 1.15086,3.56437 1.1528,6.65067 0,0 0.0207,32.93653 0.0207,32.93653 0.002,3.11079 -0.49647,6.14997 -1.15017,6.84717 0,0 -10.3527,11.04157 -10.3527,11.04157 -1.47202,1.56997 -2.75075,-1.20093 -2.74597,-6.33676 0,0 0.0504,-54.23845 0.0504,-54.23845 0.005,-5.06942 1.27889,-7.9513 2.73779,-6.57877 0,0 0,0 0,0"
         style="fill:#ffff00;fill-opacity:1;fill-rule:evenodd;stroke:#000000;stroke-width:3;stroke-linecap:butt;stroke-linejoin:miter;stroke-miterlimit:4;stroke-dasharray:none;stroke-opacity:1"
         transform="scale(1,-1)"
         inkscape:connector-curvature="0" />
    </a>
  </g>
</svg>
